<?xml version="1.0" encoding="UTF-8" standalone="no"?>
<!-- Created with Inkscape (http://www.inkscape.org/) -->

<svg
   width="144.5898mm"
   height="144.5898mm"
   viewBox="0 0 144.5898 144.5898"
   version="1.1"
   id="svg5"
   xml:space="preserve"
   xmlns="http://www.w3.org/2000/svg"
   xmlns:svg="http://www.w3.org/2000/svg"><defs
     id="defs2"><rect
       x="198.25597"
       y="297.38394"
       width="893.54803"
       height="432.81232"
       id="rect952" /></defs><g
     id="layer1"
     transform="translate(184.07417,-38.180435)"><g
       id="g2597"><path
         id="rect553"
         style="fill:#014f41;stroke-width:6.61458;stroke-linecap:square;stroke-linejoin:round;stop-color:#000000"
         d="m -160.21664,38.180435 h 96.874734 c 13.217072,0 23.857531,10.640459 23.857531,23.857531 V 158.9127 c 0,13.21707 -10.640459,23.85753 -23.857531,23.85753 h -96.874734 c -13.21707,0 -23.85753,-10.64046 -23.85753,-23.85753 V 62.037966 c 0,-13.217072 10.64046,-23.857531 23.85753,-23.857531 z" /><path
         style="color:#000000;fill:#ffffff;stroke-linecap:square;stroke-linejoin:round;-inkscape-stroke:none"
         d="m -160.0957,60.865234 v 3.308594 15.140625 c 0,4.709895 3.88971,8.597656 8.59961,8.597656 h 17.11914 v 12.640621 h -19.10352 v -4.449214 -3.306641 h -6.61523 v 3.306641 4.449214 6.61524 13.17773 3.30664 h 6.61523 v -3.30664 -13.17773 h 19.10352 v 13.17773 3.30664 h 6.61523 v -3.30664 -13.17773 -6.61524 -12.640621 -6.613281 -17.125 -3.308594 h -6.61523 v 3.308594 17.125 h -17.11914 c -1.13511,0 -1.98438,-0.849261 -1.98438,-1.984375 V 64.173828 60.865234 Z m 64.298825,0 v 3.308594 9.921875 h -1.958984 -6.613281 -8.54883 c -4.70989,0 -8.59766,3.887762 -8.59766,8.597656 v 37.652341 3.30664 h 6.61329 V 120.3457 82.693359 c 0,-1.135113 0.84927,-1.984375 1.98437,-1.984375 h 8.54883 v 39.636716 3.30664 h 6.613281 V 120.3457 80.708984 h 1.958984 6.615234 1.957032 v 39.636716 3.30664 h 6.615234 V 120.3457 80.708984 h 8.546875 c 1.135114,0 1.984375,0.849262 1.984375,1.984375 v 37.652341 3.30664 h 6.615234 V 120.3457 82.693359 c 0,-4.709894 -3.889715,-8.597656 -8.599609,-8.597656 h -8.546875 -6.615234 -1.957032 v -9.921875 -3.308594 z m -57.349605,67.253906 v 6.61523 h 3.30664 26.15429 c 1.13512,0 1.98438,0.84926 1.98438,1.98438 v 4.07617 h -23.15039 -3.3086 v 6.61524 h 3.3086 66.144529 3.308594 v -6.61524 h -3.308594 -23.150389 v -4.07617 c 0,-1.13512 0.84925,-1.98438 1.984373,-1.98438 h 26.154297 3.306641 v -6.61523 h -3.306641 -26.154297 c -4.709893,0 -8.599613,3.88971 -8.599613,8.59961 v 4.07617 h -6.61328 v -4.07617 c 0,-4.7099 -3.88971,-8.59961 -8.59961,-8.59961 h -26.15429 z m -8.24219,25.35156 v 6.61328 h 3.30664 92.605468 3.30664 v -6.61328 h -3.30664 -92.605468 z"
         id="path318" /></g></g></svg>
