<?xml version="1.0" encoding="UTF-8" standalone="no"?>
<!-- Created with Inkscape (http://www.inkscape.org/) -->

<svg
   width="626.47229mm"
   height="192.06935mm"
   viewBox="0 0 626.47229 192.06935"
   version="1.1"
   id="svg5"
   xml:space="preserve"
   xmlns="http://www.w3.org/2000/svg"
   xmlns:svg="http://www.w3.org/2000/svg"><defs
     id="defs2"><rect
       x="198.25597"
       y="297.38394"
       width="893.54803"
       height="432.81232"
       id="rect952" /></defs><g
     id="layer1"
     transform="translate(181.5914,266.04706)"><g
       id="g7592"><path
         id="rect5014"
         style="fill:#014f41;stroke-width:5.29167;stroke-linecap:square;stroke-linejoin:round;stop-color:#000000"
         d="m -149.08394,-266.04706 h 561.45737 c 18.00913,0 32.50746,14.49833 32.50746,32.50746 v 127.05443 c 0,18.009135 -14.49833,32.507463 -32.50746,32.507463 h -561.45737 c -18.00913,0 -32.50746,-14.498328 -32.50746,-32.507463 V -233.5396 c 0,-18.00913 14.49833,-32.50746 32.50746,-32.50746 z" /><path
         id="path7412-4"
         style="fill:#ffffff;stroke-width:0.437612"
         d="m -90.854772,-221.17671 -30.669038,22.28232 7.25548,22.31002 42.382326,-30.8105 z m 20.79722,15.10995 -18.975477,13.79444 42.39996,30.78783 7.245407,-22.29911 z m -53.295138,8.50131 -18.96919,13.78185 11.71497,36.05409 23.45931,-0.006 z m 31.423763,7.39779 -20.560483,14.94708 20.560483,6.68041 z m 2.148311,0.008 v 21.6191 l 20.568457,-6.68293 z m -23.380394,16.97912 7.86118,24.1729 12.706851,-17.48997 z m 44.605351,0.002 -20.560905,6.68041 12.712723,17.49753 z m 2.241495,0.0588 -16.17949,49.83803 h 23.447136 l 11.714549,-36.05367 z m -24.540608,7.88511 -12.711888,17.49669 25.41916,-0.006 z m 13.3453,19.63912 -52.398968,0.0147 7.24541,22.29912 h 37.910246 z" /><path
         style="color:#000000;fill:#ffffff;stroke-linecap:square;stroke-linejoin:round;-inkscape-stroke:none"
         d="m -20.158203,-221.92969 v 3.30664 15.14063 c -3e-6,4.70989 3.889713,8.59961 8.599609,8.59961 H 5.5625 v 12.64062 H -13.542969 V -186.69336 -190 h -6.615234 v 3.30664 4.45117 6.61328 13.17774 3.30664 h 6.615234 v -3.30664 -13.17774 H 5.5625 v 13.17774 3.30664 h 6.613281 v -3.30664 -13.17774 -6.61328 -12.64062 -6.61524 -17.125 -3.30664 H 5.5625 v 3.30664 17.125 h -17.121094 c -1.135114,0 -1.984375,-0.84926 -1.984375,-1.98437 v -15.14063 -3.30664 z m 64.298828,0 v 3.30664 9.92188 h -1.958984 -6.613282 -8.546875 c -4.709896,0 -8.599612,3.88971 -8.599609,8.59961 v 37.65039 3.30664 h 6.615234 v -3.30664 -37.65039 c 0,-1.13512 0.849261,-1.98438 1.984375,-1.98438 h 8.546875 v 39.63477 3.30664 h 6.613282 v -3.30664 -39.63477 h 1.958984 6.615234 1.958985 v 39.63477 3.30664 h 6.613281 v -3.30664 -39.63477 h 8.548828 c 1.135114,0 1.984376,0.84926 1.984375,1.98438 v 37.65039 3.30664 h 6.613281 v -3.30664 -37.65039 c 3e-6,-4.7099 -3.887759,-8.59961 -8.597656,-8.59961 h -8.548828 -6.613281 -1.958985 v -9.92188 -3.30664 z m 48.841797,0 c -4.709897,0 -8.599612,3.88776 -8.59961,8.59766 v 82.02148 c -2e-6,4.7099 3.889713,8.59961 8.59961,8.59961 h 82.019528 c 4.7099,10e-6 8.59962,-3.88971 8.59961,-8.59961 v -82.02148 c 1e-5,-4.7099 -3.88971,-8.59766 -8.59961,-8.59766 z m 97.234378,0 v 6.61328 h 3.30664 42.99414 v 19.84375 h -35.85547 c -4.7099,0 -8.59961,3.88971 -8.59961,8.59961 v 21.16602 3.30859 h 6.61523 v -3.30859 -21.16602 c 0,-1.13511 0.84926,-1.98437 1.98438,-1.98437 h 35.85547 6.61523 35.85547 c 1.13512,0 1.98438,0.84926 1.98438,1.98437 v 21.16602 3.30859 h 6.61523 v -3.30859 -21.16602 c 0,-4.7099 -3.88971,-8.59961 -8.59961,-8.59961 h -35.85547 v -19.84375 h 42.99414 3.3086 v -6.61328 h -3.3086 -42.99414 -6.61523 -42.99414 z m 105.83203,0 v 6.61328 h 3.30859 9.92188 v 19.84375 h -11.11914 -3.3086 v 6.61524 h 3.3086 11.11914 6.61328 11.11914 3.30859 v -6.61524 h -3.30859 -11.11914 v -19.84375 h 9.92187 3.3086 v -6.61328 h -3.3086 -9.92187 -6.61328 -9.92188 z m 74.74609,0 c -4.7099,0 -8.59961,3.88776 -8.59961,8.59766 v 82.02148 c 0,4.7099 3.88971,8.59962 8.59961,8.59961 h 15.875 c 4.7099,10e-6 8.59766,-3.88971 8.59766,-8.59961 v -42.33398 c 0,-4.7099 -3.88776,-8.59766 -8.59766,-8.59766 h -7.9375 -3.30859 v 6.61328 h 3.30859 7.9375 c 1.13512,0 1.98438,0.84926 1.98438,1.98438 v 42.33398 c 0,1.13512 -0.84926,1.98438 -1.98438,1.98438 h -15.875 c -1.13511,0 -1.98437,-0.84926 -1.98437,-1.98438 v -82.02148 c 0,-1.13512 0.84926,-1.98438 1.98437,-1.98438 h 21.16602 3.30664 v -6.61328 h -3.30664 z m -37.64453,0.1836 v 3.30664 34.39648 c 0,4.7099 3.88971,8.59961 8.59961,8.59961 h 9.80273 v 19.84375 h -13.63476 v -9.92187 -3.3086 h -6.61328 v 3.3086 39.6875 3.30664 h 6.61328 v -3.30664 -23.15235 h 13.63476 v 23.15235 3.30664 h 6.61329 v -3.30664 -23.15235 -6.61328 -19.84375 -6.61523 -36.38086 -3.30664 h -6.61329 v 3.30664 36.38086 H 341.75 c -1.13511,0 -1.98438,-0.84926 -1.98438,-1.98438 v -34.39648 -3.30664 z m -240.167968,6.42968 h 82.019528 c 1.13512,0 1.98438,0.84926 1.98438,1.98438 v 82.02148 c 0,1.13512 -0.84926,1.98438 -1.98438,1.98438 H 92.982422 c -1.135114,0 -1.984376,-0.84926 -1.984375,-1.98438 v -82.02148 c -10e-7,-1.13512 0.849261,-1.98438 1.984375,-1.98438 z m 14.164058,16.15039 v 6.61524 h 3.3086 41.7832 c 1.13512,0 1.98438,0.84926 1.98438,1.98437 v 12.95313 c 0,1.13511 -0.84926,1.98437 -1.98438,1.98437 h -36.49219 c -4.70989,0 -8.59961,3.88971 -8.59961,8.59961 v 12.95508 c 0,4.7099 3.88972,8.59766 8.59961,8.59766 h 41.78321 3.30859 v -6.61328 h -3.30859 -41.78321 c -1.13511,0 -1.98437,-0.84926 -1.98437,-1.98438 v -12.95508 c 0,-1.13511 0.84926,-1.98437 1.98437,-1.98437 h 36.49219 c 4.7099,0 8.59961,-3.88971 8.59961,-8.59961 v -12.95313 c 0,-4.70989 -3.88971,-8.59961 -8.59961,-8.59961 h -41.7832 z m 191.29493,15.22461 v 3.3086 11.61914 6.61523 31.08789 c -1e-5,4.7099 3.88971,8.59962 8.59961,8.59961 h 11.08984 c 4.7099,10e-6 8.59961,-3.88971 8.59961,-8.59961 v -31.08789 -6.61523 -11.61914 -3.3086 h -6.61524 v 3.3086 11.61914 h -15.05859 v -11.61914 -3.3086 z m -94.9961,5.76172 v 3.30664 12.8086 6.61523 24.13867 c 0,4.7099 3.88971,8.59962 8.59961,8.59961 h 55.5625 c 4.7099,10e-6 8.59766,-3.88971 8.59766,-8.59961 v -24.13867 -6.61523 -12.8086 -3.30664 h -6.61328 v 3.30664 12.8086 h -59.53125 v -12.8086 -3.30664 z m 101.61133,15.78125 h 15.05859 v 31.08789 c 10e-6,1.13512 -0.84926,1.98438 -1.98437,1.98438 h -11.08984 c -1.13512,0 -1.98438,-0.84926 -1.98438,-1.98438 z m -94.99609,6.94922 h 59.53125 v 24.13867 c 0,1.13512 -0.84926,1.98438 -1.98438,1.98438 h -55.5625 c -1.13511,0 -1.98437,-0.84926 -1.98437,-1.98438 z m -223.269534,0.77344 v 6.61328 h 3.3085934 26.1523436 c 1.135114,0 1.984376,0.84926 1.984375,1.98438 v 4.07617 H -4.9140625 -8.2207031 v 6.61523 h 3.3066406 66.1464845 3.30664 v -6.61523 h -3.30664 -23.152344 v -4.07617 c -10e-7,-1.13512 0.849261,-1.98438 1.984375,-1.98438 h 26.154297 3.306641 v -6.61328 H 66.21875 40.064453 c -4.709896,0 -8.597659,3.88776 -8.597656,8.59766 v 4.07617 h -6.615235 v -4.07617 c 3e-6,-4.7099 -3.889712,-8.59766 -8.599609,-8.59766 H -9.9003906 Z m -8.242188,25.34961 v 6.61523 h 3.308594 92.603515 3.306641 v -6.61523 h -3.306641 -92.603515 z"
         id="path4908" /></g></g></svg>
